# xmcd
#
# Track frame offsets: 
#        150
#        17167
#        52232
#        77601
#        107696
#        133177
#        156095
#        182289
#        215439
#        249508
#        275781
#        293761
#
# Disc length: 4339 seconds
#
# Revision: 0
# Processed by: cddbd v1.5.2PL0 Copyright (c) Steve Scherf et al.
# Submitted via: ExactAudioCopy v1.0b3
#
DISCID=ab10f10c
DTITLE=Boulevard Blues - The Railroad Tracks
DYEAR=2008
DGENRE=Blues
TTITLE0=Love Chile
TTITLE1=Blues at Night
TTITLE2=Big Boss Man
TTITLE3=Living with a Stranger
TTITLE4=Same Thing
TTITLE5=I'm Ready
TTITLE6=Help Me
TTITLE7=Thrill is Gone
TTITLE8=Champagne and Reefer
TTITLE9=Last Fair Deal
TTITLE10=Love Chile
TTITLE11=Hoochie
EXTD=
EXTT0=
EXTT1=
EXTT2=
EXTT3=
EXTT4=
EXTT5=
EXTT6=
EXTT7=
EXTT8=
EXTT9=
EXTT10=
EXTT11=
PLAYORDER=
